<svg version="1" xmlns="http://www.w3.org/2000/svg" width="666.667" height="666.667" viewBox="0 0 500.000000 500.000000"><path d="M205.7 23.7c-.3.5-39.3 102.3-86.7 226.3-47.4 124-86.4 225.8-86.7 226.2-.2.5 20.4.8 45.9.8h46.3l10.9-31.3c6-17.1 11.8-33.6 12.8-36.5l1.9-5.2h81.4l13.4-8.7 13.5-8.7-16-3.3c-8.7-1.7-16.1-3.2-16.4-3.3-.3-.1 6.9-3.9 16-8.5l16.5-8.3-16-7.7c-8.8-4.3-18.8-9-22.3-10.6l-6.4-2.9 8.6-9.7 8.5-9.8-26-.3c-20.2-.2-26-.5-25.6-1.5.2-.6 12.2-35 26.6-76.2 14.5-41.3 26.6-75.3 27-75.8.4-.4 1.5 1.7 2.6 4.5 1 2.9 1.9 5.4 2.1 5.6.1.2 5.5-3.6 12.1-8.4 6.5-4.8 11.9-8.8 12.1-9 .2-.1-2.9-6.6-6.8-14.4-3.9-7.8-6.9-14.5-6.5-14.8.3-.3 6.9-1 14.5-1.5l14-1v-3.1c0-1.8-.7-8.6-1.5-15.1-.8-6.6-1.5-12.5-1.5-13.2 0-.6 2.4-1.7 5.4-2.4 3-.6 6-1.5 6.7-2 .9-.5-2.1-9.6-12.1-35.8L260.6 23h-27.2c-15 0-27.5.3-27.7.7z"/><path d="M316.8 95.7c-3.2.8-5.8 2-5.8 2.7 0 .6.7 6.5 1.5 13.1.8 6.5 1.5 13.3 1.5 15.1v3.1l-14 1c-7.6.5-14.2 1.2-14.5 1.5-.4.3 2.6 7 6.5 14.8 3.9 7.8 7 14.3 6.8 14.4-9.5 6.8-23.8 17.8-23.8 18.4 0 .4 11 32.2 24.5 70.7 13.5 38.4 24.5 70.2 24.5 70.7 0 .4-12.5.8-27.8.8h-27.9l-8.7 10-8.7 10 6.3 2.9c3.5 1.6 13.5 6.3 22.3 10.6l16 7.7-16.5 8.3c-9.1 4.6-16.3 8.4-16 8.5.3.1 7.7 1.6 16.4 3.3l16 3.3-13.5 8.7-13.4 8.7 42.5.2 42.5.3 12.6 36 12.6 36 46.3.3c43.8.2 46.2.1 45.5-1.5-.3-1-33.3-87.2-73.2-191.6C357.4 179.4 324.2 94 323.6 94.1c-.6.1-3.7.8-6.8 1.6z"/></svg>